#!OML:ASF F:\VICON\USERDATA\INSTALL\rory3\rory3.ASF
:FULLY-SPECIFIED
:DEGREES
399
root 8.60472 17.9725 -11.4569 197.604 122.112 167.69
lowerback 33.8482 2.02387 -8.89646
upperback 11.1592 0.273602 -2.62982
thorax -4.79833 0.330817 1.80098
lowerneck -23.5352 -3.67069 -12.3305
upperneck 18.468 -3.94273 13.3822
head 10.3175 -1.10746 6.29779
rclavicle -1.43125e-014 -6.99722e-014
rhumerus -21.7972 14.5991 -86.892
rradius 78.0362
rwrist -4.28481
rhand -26.2692 14.2672
rfingers 7.12502
rthumb 0.285757 -15.7123
lclavicle -1.43125e-014 -6.99722e-014
lhumerus 5.8491 -32.1801 59.7564
lradius 74.6256
lwrist 18.0275
lhand -27.1755 33.0847
lfingers 7.12502
lthumb -0.589547 63.0636
rfemur -27.7512 0.991267 18.55
rtibia 41.9678
rfoot 3.7765 6.90772
rtoes 3.39893
lfemur -50.2412 3.78705 -16.4611
ltibia 29.3356
lfoot -3.52657 -3.94063
ltoes 2.76824
400
root 8.63414 17.9855 -11.4323 197.157 122.121 168.138
lowerback 33.6221 1.74519 -8.21319
upperback 10.8812 0.0885406 -3.17485
thorax -5.02846 0.279627 0.942619
lowerneck -22.9886 -3.70751 -11.6222
upperneck 18.6222 -4.42777 13.8962
head 10.348 -1.23153 6.29627
rclavicle 4.77083e-015 -2.38542e-014
rhumerus -22.3214 14.4416 -88.0931
rradius 78.5404
rwrist -4.24348
rhand -26.3818 14.4092
rfingers 7.12502
rthumb 0.17701 -15.5705
lclavicle 4.77083e-015 -2.38542e-014
lhumerus 4.86283 -33.8387 59.537
lradius 75.0158
lwrist 16.595
lhand -25.9685 32.1421
lfingers 7.12502
lthumb 0.576202 62.1211
rfemur -27.1832 0.591711 18.469
rtibia 42.6133
rfoot 4.25676 6.81636
rtoes 3.074
lfemur -49.0173 3.70235 -16.667
ltibia 29.0417
lfoot -3.61413 -3.97336
ltoes 2.52043
401
root 8.66236 18.0013 -11.4118 196.714 122.033 168.603
lowerback 33.1555 1.93174 -8.3282
upperback 10.8806 0.354611 -2.74411
thorax -4.87431 0.382997 1.37492
lowerneck -22.5138 -3.94733 -11.6321
upperneck 18.4174 -4.78648 13.874
head 10.2414 -1.41645 6.21859
rclavicle 1.11319e-014 4.92986e-014
rhumerus -22.442 14.6205 -87.591
rradius 79.2228
rwrist -4.64677
rhand -26.4912 14.5706
rfingers 7.12502
rthumb 0.0713219 -15.4091
lclavicle 1.11319e-014 4.92986e-014
lhumerus 4.21367 -35.0489 60.6769
lradius 75.276
lwrist 14.9821
lhand -25.7806 32.164
lfingers 7.12502
lthumb 0.757689 62.1424
rfemur -26.5978 0.229269 18.3913
rtibia 43.2744
rfoot 4.6928 6.4926
rtoes 4.26794
lfemur -47.7803 3.4893 -16.8344
ltibia 28.7242
lfoot -3.71784 -3.97527
ltoes 2.28701
402
root 8.68506 18.0134 -11.3951 196.242 121.876 168.994
lowerback 32.9859 2.16576 -8.50024
upperback 10.7119 0.624335 -2.12275
thorax -5.01921 0.492591 2.02817
lowerneck -22.2656 -4.33741 -12.1272
upperneck 18.64 -5.24101 13.9911
head 10.3613 -1.65669 6.28512
rclavicle -2.06736e-014 -1.19271e-014
rhumerus -22.708 15.0153 -86.7967
rradius 79.9628
rwrist -5.09279
rhand -27.052 14.6289
rfingers 7.12502
rthumb -0.470268 -15.3503
lclavicle -2.06736e-014 -1.19271e-014
lhumerus 3.26371 -36.1997 62.2186
lradius 75.6315
lwrist 13.4544
lhand -25.7765 32.658
lfingers 7.12502
lthumb 0.761562 62.6364
rfemur -26.0762 -0.377797 18.3908
rtibia 43.9507
rfoot 5.04696 6.33169
rtoes 5.80094
lfemur -46.5935 3.20353 -16.9219
ltibia 28.3634
lfoot -3.74199 -3.91746
ltoes 2.61016
403
root 8.70575 18.0283 -11.3725 195.565 121.7 169.215
lowerback 33.0624 1.63342 -7.56369
upperback 10.4409 0.170172 -2.74901
thorax -5.33127 0.320556 1.03399
lowerneck -22.1546 -4.4618 -11.8512
upperneck 19.0656 -5.78546 14.9592
head 10.6114 -1.77263 6.54239
rclavicle -2.06736e-014 1.59028e-015
rhumerus -23.0443 15.3119 -88.1139
rradius 80.5114
rwrist -4.98853
rhand -27.3716 14.6947
rfingers 7.12502
rthumb -0.779036 -15.2836
lclavicle -2.06736e-014 1.59028e-015
lhumerus 2.26938 -37.4579 61.6795
lradius 76.1481
lwrist 12.5381
lhand -25.9544 33.1086
lfingers 7.12502
lthumb 0.589764 63.0876
rfemur -25.5049 -1.20186 18.5309
rtibia 44.6388
rfoot 5.30875 6.42252
rtoes 5.57588
lfemur -45.3415 3.06788 -16.9657
ltibia 27.9788
lfoot -3.75288 -4.03364
ltoes 2.84528
404
root 8.72875 18.0477 -11.343 194.859 121.643 169.416
lowerback 32.6273 1.931 -8.00171
upperback 10.4735 0.496954 -1.99367
thorax -5.151 0.43949 1.95392
lowerneck -21.9041 -5.00627 -12.898
upperneck 19.1681 -6.37417 15.5025
head 10.7561 -2.07084 6.84621
rclavicle 5.24792e-014 -1.98785e-014
rhumerus -23.0144 15.8868 -87.2399
rradius 81.1597
rwrist -5.08752
rhand -27.204 14.8471
rfingers 7.12502
rthumb -0.617111 -15.1318
lclavicle 5.24792e-014 -1.98785e-014
lhumerus 1.65487 -38.307 63.1186
lradius 76.3754
lwrist 11.536
lhand -26.2433 33.9717
lfingers 7.12502
lthumb 0.310746 63.9512
rfemur -24.9042 -1.58422 18.638
rtibia 45.3297
rfoot 5.54787 5.94935
rtoes 5.89718
lfemur -44.0262 3.12061 -17.0629
ltibia 27.57
lfoot -3.83889 -4.20677
ltoes 2.21084
405
root 8.75627 18.0641 -11.3116 194.46 121.823 169.836
lowerback 32.1979 2.20378 -8.40931
upperback 10.3141 0.758234 -1.52081
thorax -5.18425 0.542507 2.58428
lowerneck -21.6045 -5.46902 -13.7829
upperneck 19.4975 -6.93927 16.0613
head 10.9774 -2.34439 7.1456
rclavicle 2.38542e-014 -3.81667e-014
rhumerus -23.2249 16.4426 -86.7375
rradius 81.8329
rwrist -5.44732
rhand -27.1871 14.8565
rfingers 7.12502
rthumb -0.600755 -15.1224
lclavicle 2.38542e-014 -3.81667e-014
lhumerus 0.680173 -39.3236 64.4085
lradius 76.741
lwrist 10.4777
lhand -26.4413 34.8068
lfingers 7.12502
lthumb 0.119538 64.7865
rfemur -24.4076 -1.66142 18.5563
rtibia 45.9815
rfoot 5.66222 5.34428
rtoes 6.46721
lfemur -42.7838 3.35468 -17.3324
ltibia 27.1512
lfoot -3.94579 -4.3734
ltoes 2.03697
406
root 8.78971 18.0811 -11.2764 194.541 122.266 170.474
lowerback 30.8826 2.30308 -8.68782
upperback 10.556 0.933611 -1.61439
thorax -4.94409 0.602984 2.8558
lowerneck -21.1451 -5.69976 -13.1056
upperneck 19.4991 -7.46339 15.74
head 10.9405 -2.5834 6.80655
rclavicle -5.40694e-014 -1.59028e-015
rhumerus -23.3592 16.9391 -86.8012
rradius 82.4771
rwrist -5.70482
rhand -27.3229 14.9498
rfingers 7.12502
rthumb -0.731981 -15.0287
lclavicle -5.40694e-014 -1.59028e-015
lhumerus -0.0668921 -40.3223 64.9913
lradius 77.1168
lwrist 9.62287
lhand -26.4723 34.9601
lfingers 7.12502
lthumb 0.0895409 64.9398
rfemur -24.2723 -1.75866 18.3382
rtibia 46.6092
rfoot 5.63168 4.92547
rtoes 5.74017
lfemur -41.8217 3.99614 -17.8696
ltibia 26.751
lfoot -4.08572 -4.69347
ltoes 1.44434
407
root 8.82386 18.0954 -11.2471 194.057 122.324 170.824
lowerback 30.4976 2.30712 -8.62731
upperback 10.4411 0.982988 -1.51407
thorax -4.90921 0.622641 2.92137
lowerneck -20.6093 -5.83858 -12.4789
upperneck 19.3595 -7.8112 15.3626
head 10.8005 -2.75717 6.48104
rclavicle 4.29375e-014 -1.35174e-014
rhumerus -23.5303 17.3482 -86.8624
rradius 83.0966
rwrist -5.75711
rhand -27.2414 14.9606
rfingers 7.12502
rthumb -0.653206 -15.0182
lclavicle 4.29375e-014 -1.35174e-014
lhumerus -0.769715 -41.2839 65.5989
lradius 77.5352
lwrist 8.8592
lhand -26.2132 34.9674
lfingers 7.12502
lthumb 0.339842 64.9469
rfemur -23.7468 -2.20574 18.315
rtibia 47.2075
rfoot 5.50728 4.21231
rtoes 5.18274
lfemur -40.5691 3.98197 -18.0002
ltibia 26.3759
lfoot -4.19822 -4.63304
ltoes 0.449873
408
root 8.85609 18.1062 -11.2215 193.473 122.436 171.029
lowerback 30.2136 2.30057 -8.4525
upperback 10.2404 1.02641 -1.44353
thorax -5.01814 0.646761 2.88796
lowerneck -20.1565 -6.06585 -12.5311
upperneck 19.4761 -8.24165 15.6407
head 10.8473 -2.94218 6.53179
rclavicle -1.43125e-014 -4.77083e-014
rhumerus -23.8005 17.7195 -87.0236
rradius 83.6813
rwrist -5.68182
rhand -27.3583 14.8404
rfingers 7.12502
rthumb -0.766149 -15.138
lclavicle -1.43125e-014 -4.77083e-014
lhumerus -1.70466 -42.2052 66.2861
lradius 78.0519
lwrist 8.12053
lhand -25.7846 34.942
lfingers 7.12502
lthumb 0.753803 64.9204
rfemur -23.2572 -2.575 18.3321
rtibia 47.7872
rfoot 5.26727 3.18594
rtoes 5.31618
lfemur -39.3576 3.9232 -18.0074
ltibia 26.0183
lfoot -4.27643 -4.47153
ltoes 0.201597
409
root 8.88889 18.1177 -11.1986 193.12 122.557 171.351
lowerback 29.8212 2.20743 -8.28828
upperback 10.0378 0.965391 -1.41303
thorax -5.06608 0.61889 2.85252
lowerneck -19.9897 -6.32344 -12.9198
upperneck 19.9013 -8.69759 16.2451
head 11.1049 -3.11318 6.78167
rclavicle -3.65764e-014 -2.46493e-014
rhumerus -24.0422 18.1979 -87.2578
rradius 84.2513
rwrist -5.61024
rhand -27.681 14.8746
rfingers 7.12502
rthumb -1.07784 -15.1025
lclavicle -3.65764e-014 -2.46493e-014
lhumerus -2.61031 -42.9571 66.893
lradius 78.5462
lwrist 7.41521
lhand -25.5255 34.8863
lfingers 7.12502
lthumb 1.00404 64.8637
rfemur -22.9051 -2.99904 18.281
rtibia 48.3294
rfoot 4.90233 2.23026
rtoes 4.97377
lfemur -38.2975 3.85487 -18.1108
ltibia 25.6664
lfoot -4.33744 -4.34996
ltoes 0.287061
410
root 8.92235 18.1297 -11.1754 192.736 122.624 171.671
lowerback 29.46 2.14262 -8.15186
upperback 9.87089 0.938551 -1.31132
thorax -5.09007 0.604899 2.90049
lowerneck -19.8679 -6.63686 -13.384
upperneck 20.3743 -9.20455 16.7988
head 11.4078 -3.31673 7.02232
rclavicle -2.06736e-014 -1.98785e-014
rhumerus -24.2505 18.5977 -87.4052
rradius 84.7887
rwrist -5.5883
rhand -27.4819 15.1061
rfingers 7.12502
rthumb -0.885503 -14.8719
lclavicle -2.06736e-014 -1.98785e-014
lhumerus -3.33606 -43.7266 67.4614
lradius 79.0669
lwrist 6.87509
lhand -25.4751 35.3669
lfingers 7.12502
lthumb 1.05273 65.344
rfemur -22.5107 -3.48301 18.259
rtibia 48.8203
rfoot 4.49711 1.3822
rtoes 3.52594
lfemur -37.2193 3.74993 -18.2018
ltibia 25.3527
lfoot -4.4261 -4.17657
ltoes 0.0534829
411
root 8.95808 18.1418 -11.149 192.395 122.765 172.048
lowerback 29.083 2.18081 -8.12737
upperback 9.68263 1.01044 -1.17708
thorax -5.13932 0.636998 3.0157
lowerneck -19.596 -6.95711 -13.7815
upperneck 20.7113 -9.70009 17.1614
head 11.6206 -3.53965 7.17151
rclavicle 4.13472e-014 -1.19271e-014
rhumerus -24.4944 18.9032 -87.4989
rradius 85.2878
rwrist -5.59554
rhand -27.0666 14.9896
rfingers 7.12502
rthumb -0.484457 -14.9896
lclavicle 4.13472e-014 -1.19271e-014
lhumerus -4.13962 -44.5532 68.1362
lradius 79.7007
lwrist 6.2676
lhand -25.1981 35.7322
lfingers 7.12502
lthumb 1.3202 65.7079
rfemur -22.1353 -3.90519 18.1681
rtibia 49.2403
rfoot 4.07401 0.539199
rtoes 2.43191
lfemur -36.1082 3.59178 -18.2867
ltibia 25.0332
lfoot -4.52392 -3.89278
ltoes -0.928696
412
root 8.9961 18.152 -11.122 191.827 122.956 172.156
lowerback 28.7412 2.16443 -8.06553
upperback 9.49636 1.02435 -0.981643
thorax -5.19652 0.640625 3.19629
lowerneck -19.4214 -7.2262 -14.2137
upperneck 20.9838 -10.0768 17.4359
head 11.807 -3.71917 7.3096
rclavicle -2.78299e-014 2.3059e-014
rhumerus -24.6637 19.4994 -87.5518
rradius 85.7563
rwrist -5.45876
rhand -26.8907 14.6929
rfingers 7.12502
rthumb -0.31454 -15.2866
lclavicle -2.78299e-014 2.3059e-014
lhumerus -5.07066 -45.0235 68.9363
lradius 80.3285
lwrist 5.65769
lhand -24.748 35.4344
lfingers 7.12502
lthumb 1.75491 65.4069
rfemur -21.7093 -4.36635 18.2008
rtibia 49.5764
rfoot 3.57113 -0.201392
rtoes 1.74966
lfemur -34.9809 3.48919 -18.2251
ltibia 24.7196
lfoot -4.59016 -3.59691
ltoes -0.811722
